<?xml version="1.0" encoding="utf-8"?>
<!-- Generator: Adobe Illustrator 16.0.0, SVG Export Plug-In . SVG Version: 6.00 Build 0)  -->
<!DOCTYPE svg PUBLIC "-//W3C//DTD SVG 1.1//EN" "http://www.w3.org/Graphics/SVG/1.1/DTD/svg11.dtd">
<svg version="1.1" id="Layer_1" xmlns="http://www.w3.org/2000/svg" xmlns:xlink="http://www.w3.org/1999/xlink" x="0px" y="0px"
	 width="339.667px" height="78px" viewBox="0 0 339.667 78" enable-background="new 0 0 339.667 78" xml:space="preserve">
<g>
	<linearGradient id="SVGID_1_" gradientUnits="userSpaceOnUse" x1="42.5264" y1="42.5264" x2="10.3824" y2="10.3824">
		<stop  offset="0" style="stop-color:#662D91"/>
		<stop  offset="1" style="stop-color:#1C75BC"/>
	</linearGradient>
	<circle fill="url(#SVGID_1_)" cx="38.303" cy="38.303" r="37.303"/>
	<linearGradient id="SVGID_2_" gradientUnits="userSpaceOnUse" x1="70.5771" y1="70.5771" x2="34.4882" y2="34.4882">
		<stop  offset="0" style="stop-color:#FFF200"/>
		<stop  offset="1" style="stop-color:#ED1C29"/>
	</linearGradient>
	<path fill="url(#SVGID_2_)" d="M65.77,13.065L13.065,65.77c6.642,6.107,15.504,9.837,25.238,9.837
		c20.602,0,37.303-16.701,37.303-37.304C75.606,28.569,71.876,19.707,65.77,13.065z"/>
	<g>
		<path fill="#FFFFFF" d="M40.156,20.792c-3.237,0-6.249,0.957-8.775,2.598c1.585,2.053,1.54,4.618,1.54,4.618v3.904h0.001
			c1.548-2.351,4.209-3.904,7.235-3.904c4.782,0,8.658,3.876,8.658,8.658c0,4.781-3.876,8.658-8.658,8.658
			c-4.694,0-8.512-3.736-8.651-8.396l-0.007,0.006c0,0,0-4.97,0-8.925c0-1.969-0.648-3.116-1.3-3.772
			c-3.762,2.955-6.182,7.542-6.182,12.697c0,8.914,7.226,16.14,16.14,16.14c8.914,0,16.14-7.226,16.14-16.14
			S49.07,20.792,40.156,20.792z"/>
		<g>
			<path fill="#FFFFFF" d="M24.016,43.504c0,0,1.871,5.506,7.375,8.231v3.955c0,0-0.41,6.163-7.375,6.787V43.504z"/>
		</g>
		<circle fill="#FFFFFF" cx="27.704" cy="14.967" r="3.688"/>
	</g>
</g>
<g>
	<path d="M96.097,42.261v9.492h-6.206V24.201h9.722c6.942,0,10.414,2.927,10.414,8.781c0,2.767-0.996,5.005-2.988,6.715
		c-1.992,1.71-4.653,2.565-7.983,2.565H96.097z M96.097,28.965v8.589h2.44c3.305,0,4.957-1.447,4.957-4.342
		c0-2.831-1.652-4.247-4.957-4.247H96.097z"/>
	<path d="M126.301,37.554c-0.73-0.397-1.582-0.596-2.556-0.596c-1.319,0-2.351,0.483-3.093,1.451
		c-0.743,0.967-1.114,2.283-1.114,3.948v9.396h-6.072V32.078h6.072v3.651h0.077c0.961-2.665,2.69-3.997,5.188-3.997
		c0.64,0,1.14,0.077,1.499,0.23V37.554z"/>
	<path d="M132.353,28.965c-1.025,0-1.863-0.304-2.517-0.913c-0.653-0.608-0.98-1.354-0.98-2.238c0-0.909,0.327-1.652,0.98-2.229
		c0.653-0.577,1.492-0.865,2.517-0.865c1.038,0,1.88,0.288,2.527,0.865c0.646,0.576,0.97,1.319,0.97,2.229
		c0,0.922-0.324,1.678-0.97,2.267C134.233,28.671,133.391,28.965,132.353,28.965z M135.351,51.753h-6.072V32.078h6.072V51.753z"/>
	<path d="M171.703,51.753h-6.052V40.532c0-2.856-1.051-4.285-3.151-4.285c-0.999,0-1.813,0.429-2.44,1.287
		c-0.628,0.858-0.941,1.928-0.941,3.209v11.009h-6.072V40.417c0-2.779-1.031-4.169-3.093-4.169c-1.038,0-1.867,0.41-2.488,1.229
		c-0.621,0.82-0.932,1.935-0.932,3.343v10.933h-6.072V32.078h6.072v3.074h0.077c0.627-1.05,1.508-1.905,2.642-2.565
		s2.373-0.99,3.718-0.99c2.779,0,4.682,1.224,5.707,3.67c1.499-2.446,3.702-3.67,6.609-3.67c4.278,0,6.417,2.639,6.417,7.916V51.753
		z"/>
	<path d="M194.183,43.645h-12.834c0.205,2.856,2.004,4.284,5.399,4.284c2.165,0,4.066-0.512,5.707-1.537v4.381
		c-1.819,0.974-4.183,1.46-7.09,1.46c-3.177,0-5.643-0.881-7.397-2.642c-1.755-1.761-2.632-4.217-2.632-7.368
		c0-3.267,0.948-5.854,2.844-7.763c1.896-1.908,4.227-2.863,6.994-2.863c2.869,0,5.088,0.852,6.658,2.556
		c1.569,1.704,2.354,4.016,2.354,6.936V43.645z M188.553,39.917c0-2.818-1.141-4.227-3.42-4.227c-0.973,0-1.815,0.403-2.526,1.21
		s-1.143,1.813-1.297,3.017H188.553z"/>
	<path d="M217.758,24.201v4.803h-2.306V46.95h2.306v4.803H206.94V46.95h2.306V29.004h-2.306v-4.803H217.758z"/>
	<path d="M240.123,51.753h-6.052V40.82c0-3.048-1.089-4.573-3.266-4.573c-1.051,0-1.915,0.403-2.594,1.21
		c-0.679,0.807-1.018,1.832-1.018,3.074v11.221h-6.072V32.078h6.072v3.113h0.077c1.447-2.395,3.555-3.593,6.321-3.593
		c4.355,0,6.533,2.703,6.533,8.108V51.753z"/>
	<path d="M243.639,51.234v-4.919c0.999,0.602,1.995,1.05,2.988,1.345c0.993,0.294,1.931,0.442,2.815,0.442
		c1.076,0,1.924-0.147,2.545-0.442c0.621-0.295,0.932-0.743,0.932-1.345c0-0.384-0.141-0.704-0.422-0.96s-0.645-0.48-1.086-0.673
		c-0.441-0.192-0.925-0.365-1.45-0.519c-0.525-0.154-1.031-0.327-1.518-0.519c-0.781-0.295-1.47-0.612-2.065-0.951
		c-0.595-0.339-1.095-0.733-1.499-1.182s-0.711-0.967-0.922-1.557c-0.211-0.589-0.317-1.287-0.317-2.094
		c0-1.102,0.24-2.049,0.721-2.843c0.48-0.794,1.121-1.444,1.921-1.95c0.8-0.506,1.716-0.877,2.748-1.115
		c1.031-0.237,2.104-0.355,3.218-0.355c0.871,0,1.756,0.067,2.652,0.202c0.896,0.134,1.779,0.33,2.65,0.586v4.688
		c-0.768-0.448-1.592-0.785-2.469-1.009s-1.738-0.336-2.584-0.336c-0.396,0-0.771,0.035-1.123,0.105
		c-0.354,0.07-0.664,0.173-0.933,0.308c-0.269,0.134-0.48,0.307-0.634,0.519s-0.23,0.452-0.23,0.721
		c0,0.358,0.115,0.666,0.346,0.922c0.231,0.256,0.532,0.478,0.903,0.663c0.371,0.186,0.785,0.353,1.24,0.5
		c0.453,0.147,0.906,0.298,1.354,0.452c0.807,0.282,1.537,0.589,2.191,0.922c0.652,0.333,1.213,0.724,1.68,1.172
		c0.469,0.448,0.826,0.974,1.076,1.575c0.25,0.603,0.375,1.32,0.375,2.152c0,1.166-0.252,2.161-0.758,2.987
		c-0.508,0.826-1.18,1.499-2.018,2.018c-0.84,0.52-1.807,0.897-2.902,1.134c-1.094,0.237-2.231,0.355-3.41,0.355
		C247.488,52.233,245.483,51.9,243.639,51.234z"/>
	<path d="M268.386,49.466h-0.077v11.336h-6.071V32.078h6.071v2.959h0.077c1.498-2.293,3.605-3.439,6.321-3.439
		c2.549,0,4.518,0.875,5.908,2.623c1.39,1.748,2.084,4.128,2.084,7.138c0,3.279-0.81,5.912-2.43,7.897
		c-1.621,1.986-3.776,2.978-6.466,2.978C271.434,52.233,269.628,51.312,268.386,49.466z M268.213,41.397v1.575
		c0,1.358,0.358,2.466,1.075,3.324c0.718,0.858,1.659,1.287,2.825,1.287c1.383,0,2.456-0.535,3.218-1.604
		c0.762-1.069,1.144-2.584,1.144-4.544c0-3.458-1.345-5.188-4.035-5.188c-1.242,0-2.258,0.471-3.045,1.412
		C268.606,38.601,268.213,39.847,268.213,41.397z"/>
	<path d="M289.713,28.965c-1.025,0-1.864-0.304-2.518-0.913c-0.653-0.608-0.979-1.354-0.979-2.238c0-0.909,0.326-1.652,0.979-2.229
		c0.653-0.577,1.492-0.865,2.518-0.865c1.037,0,1.879,0.288,2.526,0.865c0.646,0.576,0.971,1.319,0.971,2.229
		c0,0.922-0.324,1.678-0.971,2.267C291.592,28.671,290.75,28.965,289.713,28.965z M292.71,51.753h-6.071V32.078h6.071V51.753z"/>
	<path d="M310.655,37.554c-0.729-0.397-1.582-0.596-2.555-0.596c-1.319,0-2.351,0.483-3.094,1.451s-1.114,2.283-1.114,3.948v9.396
		h-6.071V32.078h6.071v3.651h0.077c0.96-2.665,2.689-3.997,5.188-3.997c0.641,0,1.14,0.077,1.498,0.23V37.554z"/>
	<path d="M331.004,43.645h-12.835c0.204,2.856,2.004,4.284,5.398,4.284c2.165,0,4.067-0.512,5.707-1.537v4.381
		c-1.819,0.974-4.183,1.46-7.09,1.46c-3.177,0-5.643-0.881-7.397-2.642c-1.755-1.761-2.632-4.217-2.632-7.368
		c0-3.267,0.947-5.854,2.843-7.763c1.896-1.908,4.228-2.863,6.994-2.863c2.869,0,5.088,0.852,6.657,2.556s2.354,4.016,2.354,6.936
		V43.645z M325.374,39.917c0-2.818-1.141-4.227-3.42-4.227c-0.974,0-1.816,0.403-2.527,1.21c-0.71,0.807-1.143,1.813-1.297,3.017
		H325.374z"/>
</g>
</svg>
